<?xml version="1.0" encoding="utf-8"?>
<!-- Generator: Adobe Illustrator 25.2.0, SVG Export Plug-In . SVG Version: 6.00 Build 0)  -->
<svg version="1.1" id="Layer_1" xmlns="http://www.w3.org/2000/svg" xmlns:xlink="http://www.w3.org/1999/xlink" x="0px" y="0px"
	 viewBox="0 0 800 800" style="enable-background:new 0 0 800 800;" xml:space="preserve">
<style type="text/css">
	.st0{fill:#FEF3F9;}
	.st1{fill:#4D4075;}
	.st2{opacity:0.19;}
	.st3{opacity:0.54;}
	.st4{fill:#4A5B89;}
	.st5{fill:#6B81C9;}
	.st6{opacity:0.5;}
	.st7{fill:#FFFFFF;}
	.st8{fill:#4E6189;}
	.st9{opacity:0.3;}
	.st10{fill:#374560;}
	.st11{fill:#506193;}
	.st12{fill:#FBB94B;}
	.st13{fill:#BC883B;}
	.st14{opacity:0.4;}
	.st15{opacity:0.2;}
	.st16{fill:#6AC8CA;}
	.st17{fill:#529999;}
	.st18{fill:#F9F050;}
	.st19{fill:#C9BF45;}
	.st20{fill:#C48D3D;}
	.st21{fill:#F170A9;}
	.st22{fill:#B55784;}
	.st23{fill:#394766;}
	.st24{fill:#E30613;}
	.st25{fill:#4E5558;}
</style>
<rect class="st0" width="800" height="800"/>
<g>
	<g>
		<g>
			<path class="st1" d="M400,627.81c-125.61,0-227.81-102.19-227.81-227.81S274.39,172.19,400,172.19S627.81,274.39,627.81,400
				S525.61,627.81,400,627.81z M400,177.28c-122.81,0-222.72,99.91-222.72,222.72S277.19,622.72,400,622.72
				S622.72,522.81,622.72,400S522.81,177.28,400,177.28z"/>
		</g>
		<g>
			<path class="st1" d="M400,633.92c-128.98,0-233.92-104.93-233.92-233.92S271.02,166.08,400,166.08
				c128.98,0,233.92,104.94,233.92,233.92S528.98,633.92,400,633.92z M400,167.78c-128.05,0-232.22,104.17-232.22,232.22
				S271.95,632.22,400,632.22S632.22,528.05,632.22,400S528.05,167.78,400,167.78z"/>
		</g>
	</g>
	<g>
		<g>
			<path class="st1" d="M383.69,336.09h-15.73v-15.73h15.73V336.09z M368.81,335.24h14.03v-14.03h-14.03V335.24z"/>
		</g>
		<g>
			<rect x="457.74" y="316.82" class="st1" width="8.15" height="8.77"/>
		</g>
		<g>
			<rect x="402.36" y="299.58" class="st1" width="14.79" height="5.05"/>
		</g>
		<g>
			<rect x="336.8" y="504.01" class="st1" width="6.12" height="6.12"/>
		</g>
		<g>
			<rect x="384.03" y="477.8" class="st1" width="6.12" height="6.12"/>
		</g>
		<g class="st2">
			<rect x="361.19" y="517.31" class="st1" width="13.53" height="4.62"/>
		</g>
		<g>
			<path class="st1" d="M397.46,504.43h-14.22v-15.11h14.22V504.43z M384.09,503.58h12.52v-13.41h-12.52V503.58z"/>
		</g>
		<g>
			<rect x="349.69" y="496.88" class="st1" width="13.37" height="14.26"/>
		</g>
		<g class="st2">
			<rect x="428.36" y="486.09" class="st1" width="8.16" height="8.16"/>
		</g>
		<g class="st2">
			
				<rect x="538.82" y="396.58" transform="matrix(-1.836970e-16 1 -1 -1.836970e-16 944.7872 -142.2494)" class="st1" width="9.39" height="9.39"/>
		</g>
		<g>
			
				<rect x="568.58" y="418.44" transform="matrix(-1.836970e-16 1 -1 -1.836970e-16 991.2429 -150.14)" class="st1" width="4.22" height="4.22"/>
		</g>
		<g>
			
				<rect x="542.34" y="430.59" transform="matrix(-1.836970e-16 1 -1 -1.836970e-16 978.2678 -111.5469)" class="st1" width="5.14" height="5.53"/>
		</g>
		<g>
			
				<rect x="593.89" y="377.21" transform="matrix(-1.836970e-16 1 -1 -1.836970e-16 977.354 -219.7585)" class="st1" width="9.33" height="3.18"/>
		</g>
		<g>
			
				<rect x="583.84" y="435.93" transform="matrix(-1.836970e-16 1 -1 -1.836970e-16 1024.4875 -147.9051)" class="st1" width="4.72" height="4.72"/>
		</g>
		<g>
			
				<rect x="602.82" y="468.5" transform="matrix(-1.836970e-16 1 -1 -1.836970e-16 1076.0398 -134.3239)" class="st1" width="4.72" height="4.72"/>
		</g>
		<g>
			
				<rect x="571.77" y="456.74" transform="matrix(-1.836970e-16 1 -1 -1.836970e-16 1034.7963 -119.4655)" class="st1" width="10.73" height="1.84"/>
		</g>
		<g class="st3">
			
				<rect x="602.93" y="425.87" transform="matrix(-1.836970e-16 1 -1 -1.836970e-16 1038.3329 -176.7522)" class="st1" width="9.22" height="9.83"/>
		</g>
		<g>
			<path class="st1" d="M589.86,495.17h-10.69V485.1h10.69V495.17z M580.02,494.32h8.98v-8.37h-8.98V494.32z"/>
		</g>
		<g>
			
				<rect x="223.54" y="434.55" transform="matrix(-1.836970e-16 1 -1 -1.836970e-16 662.8088 211.0094)" class="st1" width="4.72" height="4.72"/>
		</g>
		<g>
			
				<rect x="192.48" y="422.79" transform="matrix(-1.836970e-16 1 -1 -1.836970e-16 621.5652 225.8677)" class="st1" width="10.73" height="1.84"/>
		</g>
		<g class="st3">
			
				<rect x="204.22" y="410.33" transform="matrix(-1.836970e-16 1 -1 -1.836970e-16 624.0795 206.4238)" class="st1" width="9.22" height="9.83"/>
		</g>
		<g>
			<path class="st1" d="M210.57,461.22h-10.69v-10.07h10.69V461.22z M200.74,460.37h8.98V452h-8.98V460.37z"/>
		</g>
		<g>
			
				<rect x="354.36" y="284.73" transform="matrix(-1 -1.224647e-16 1.224647e-16 -1 723.7483 585.4903)" class="st1" width="15.03" height="16.03"/>
		</g>
	</g>
	<g>
		<path d="M249.98,472.02l9.95,18.63c-0.37,0.3-0.75,0.59-1.14,0.85c-0.39,0.26-0.81,0.51-1.27,0.76c-2.56,1.37-5.23,2.17-8.02,2.41
			c-2.79,0.24-5.48-0.03-8.07-0.82c-2.6-0.79-4.98-2.05-7.15-3.78c-2.17-1.73-3.95-3.9-5.34-6.5c-1.37-2.56-2.17-5.23-2.41-8.02
			c-0.24-2.79,0.03-5.48,0.82-8.07c0.79-2.6,2.06-4.98,3.81-7.17c1.75-2.18,3.91-3.96,6.47-5.32c2.6-1.39,5.28-2.2,8.05-2.43
			c2.77-0.23,5.45,0.05,8.04,0.83c2.6,0.79,4.98,2.06,7.17,3.81c2.18,1.75,3.96,3.91,5.32,6.46l-5.07,2.71
			c-0.99-1.86-2.27-3.41-3.85-4.67c-1.57-1.25-3.31-2.17-5.21-2.75c-1.9-0.58-3.86-0.77-5.89-0.59c-2.03,0.18-3.97,0.77-5.82,1.76
			c-1.86,0.99-3.42,2.28-4.7,3.86c-1.28,1.58-2.19,3.32-2.75,5.21c-0.56,1.89-0.75,3.83-0.58,5.84c0.17,2.01,0.75,3.94,1.74,5.79
			c0.88,1.65,2,3.07,3.35,4.26c1.35,1.19,2.83,2.09,4.44,2.72c1.61,0.63,3.29,0.96,5.04,1.01c1.75,0.05,3.45-0.21,5.11-0.78
			l-7.11-13.31L249.98,472.02z"/>
		<path d="M271.34,538.81l-4.22-4.41l4.37-4.17c-2.16,0.31-4.35,0.11-6.59-0.6c-2.23-0.71-4.21-1.97-5.92-3.76
			c-1.71-1.79-2.98-3.8-3.81-6.02c-0.83-2.22-1.21-4.49-1.16-6.8c0.05-2.32,0.54-4.56,1.47-6.74c0.93-2.18,2.29-4.12,4.08-5.84
			c1.79-1.71,3.8-2.98,6.02-3.81c2.22-0.83,4.48-1.2,6.78-1.13c2.3,0.07,4.54,0.57,6.72,1.5s4.12,2.29,5.84,4.08
			c1.68,1.76,2.93,3.73,3.76,5.92c0.83,2.19,1.23,4.41,1.21,6.65c-0.02,2.25-0.47,4.46-1.34,6.62c-0.88,2.16-2.18,4.1-3.91,5.82
			L271.34,538.81z M263.4,521.65c1.13,1.18,2.42,2.07,3.86,2.67c1.44,0.6,2.92,0.91,4.45,0.95c1.52,0.04,3.01-0.22,4.46-0.77
			c1.45-0.55,2.77-1.38,3.95-2.51c1.18-1.13,2.08-2.41,2.69-3.83c0.61-1.42,0.94-2.9,0.97-4.42c0.04-1.52-0.22-3.01-0.76-4.46
			c-0.55-1.45-1.38-2.77-2.51-3.95s-2.41-2.08-3.83-2.69c-1.43-0.61-2.9-0.94-4.42-0.97c-1.52-0.03-3.02,0.21-4.48,0.74
			c-1.47,0.53-2.8,1.36-3.98,2.49c-1.18,1.13-2.08,2.42-2.67,3.86c-0.6,1.44-0.91,2.92-0.95,4.44c-0.04,1.52,0.21,3.02,0.74,4.48
			C261.44,519.14,262.26,520.47,263.4,521.65z"/>
		<path d="M292.17,530.49c0.97-1.76,2.22-3.22,3.74-4.39c1.52-1.16,3.17-2,4.96-2.52c1.78-0.51,3.62-0.69,5.53-0.51
			c1.91,0.17,3.74,0.74,5.51,1.71c2.17,1.2,3.85,2.8,5.05,4.79c1.2,2,1.83,4.14,1.91,6.42c1.97-1.16,4.12-1.76,6.45-1.81
			c2.33-0.05,4.57,0.52,6.75,1.72c1.76,0.97,3.24,2.21,4.44,3.73c1.19,1.51,2.05,3.16,2.56,4.94c0.51,1.78,0.67,3.63,0.47,5.55
			c-0.2,1.92-0.79,3.76-1.76,5.52l-10.3,18.68l-5.35-2.95l10.3-18.68c0.57-1.02,0.9-2.08,0.99-3.18c0.1-1.09-0.01-2.17-0.31-3.22
			c-0.3-1.05-0.79-2.01-1.45-2.88c-0.67-0.87-1.51-1.6-2.53-2.16c-1.02-0.57-2.08-0.9-3.18-0.99c-1.1-0.1-2.17,0.01-3.22,0.31
			c-1.05,0.3-2.01,0.79-2.89,1.45c-0.88,0.67-1.6,1.51-2.16,2.53l-10.3,18.68l-5.41-2.98l10.3-18.68c0.57-1.02,0.9-2.08,0.99-3.18
			c0.1-1.1,0-2.16-0.28-3.2c-0.28-1.04-0.77-2-1.45-2.89c-0.69-0.89-1.54-1.61-2.57-2.18c-1.03-0.57-2.08-0.9-3.18-0.99
			c-1.1-0.1-2.17,0.01-3.22,0.31c-1.05,0.3-2.01,0.79-2.89,1.45c-0.88,0.67-1.6,1.51-2.16,2.54l-10.3,18.68l-5.35-2.95
			L292.17,530.49z"/>
		<path d="M365.75,546.97c2.25,0.45,4.33,1.33,6.24,2.62c1.91,1.29,3.51,2.87,4.81,4.73c1.29,1.86,2.24,3.92,2.83,6.19
			c0.59,2.27,0.68,4.57,0.25,6.92l-0.4,1.99l-28.69-5.78c-0.16,1.5-0.04,2.94,0.34,4.33c0.39,1.39,0.99,2.65,1.82,3.77
			c0.82,1.12,1.83,2.06,3.01,2.83c1.18,0.76,2.48,1.29,3.91,1.57c2.29,0.46,4.46,0.25,6.5-0.62c2.04-0.88,3.66-2.2,4.88-3.96
			l6.81,1.37c-0.92,1.72-2.06,3.25-3.43,4.57c-1.37,1.33-2.91,2.4-4.62,3.22c-1.72,0.82-3.53,1.36-5.45,1.62
			c-1.91,0.26-3.88,0.18-5.9-0.22c-2.43-0.49-4.62-1.41-6.57-2.76c-1.95-1.35-3.56-2.98-4.84-4.91c-1.28-1.93-2.17-4.05-2.65-6.37
			c-0.49-2.32-0.49-4.69,0-7.12c0.49-2.43,1.41-4.62,2.76-6.57c1.35-1.95,2.98-3.55,4.91-4.81c1.92-1.26,4.04-2.13,6.36-2.62
			C360.94,546.47,363.32,546.48,365.75,546.97z M364.54,552.95c-1.38-0.28-2.73-0.31-4.06-0.1c-1.33,0.21-2.57,0.62-3.72,1.22
			c-1.15,0.6-2.18,1.39-3.09,2.35c-0.91,0.96-1.64,2.08-2.18,3.35l22.43,4.52c-0.01-1.38-0.24-2.7-0.71-3.94
			c-0.47-1.24-1.11-2.36-1.94-3.36c-0.82-1-1.81-1.86-2.95-2.56S365.92,553.23,364.54,552.95z"/>
		<path d="M409.01,561.91l21.06-1.59c0.13,0.46,0.23,0.92,0.32,1.38c0.08,0.46,0.14,0.95,0.18,1.46c0.22,2.89-0.12,5.66-1.02,8.31
			c-0.9,2.65-2.24,5-4.01,7.06c-1.77,2.06-3.88,3.73-6.34,5.02c-2.46,1.29-5.16,2.04-8.1,2.27c-2.89,0.22-5.66-0.12-8.31-1.03
			c-2.65-0.9-5-2.24-7.06-4c-2.06-1.77-3.73-3.89-5.02-6.38c-1.29-2.48-2.04-5.17-2.26-8.06c-0.22-2.94,0.12-5.72,1.02-8.35
			c0.9-2.62,2.24-4.97,4.01-7.02c1.77-2.06,3.89-3.73,6.38-5.02c2.48-1.29,5.17-2.05,8.06-2.26l0.43,5.74
			c-2.1,0.16-4.04,0.7-5.82,1.64c-1.78,0.93-3.32,2.15-4.61,3.66c-1.29,1.51-2.27,3.22-2.92,5.15c-0.65,1.93-0.9,3.94-0.74,6.04
			c0.16,2.1,0.7,4.05,1.64,5.86c0.93,1.81,2.15,3.34,3.66,4.61c1.5,1.27,3.21,2.23,5.11,2.89c1.9,0.66,3.9,0.9,6,0.74
			c1.86-0.14,3.61-0.59,5.25-1.35s3.06-1.74,4.28-2.96c1.22-1.22,2.21-2.62,2.95-4.2c0.75-1.58,1.2-3.25,1.35-4.99l-15.05,1.14
			L409.01,561.91z"/>
		<path d="M478.79,569.23l-5.74,2.09l-2.07-5.67c-0.58,2.1-1.64,4.03-3.19,5.79c-1.55,1.76-3.49,3.06-5.82,3.91
			c-2.33,0.85-4.68,1.21-7.04,1.07c-2.36-0.13-4.6-0.69-6.69-1.67c-2.1-0.98-3.96-2.33-5.58-4.05s-2.86-3.75-3.71-6.08
			c-0.85-2.33-1.21-4.68-1.07-7.04c0.13-2.36,0.69-4.59,1.68-6.66c0.99-2.08,2.34-3.93,4.06-5.55s3.75-2.86,6.08-3.71
			c2.29-0.83,4.6-1.19,6.93-1.07c2.33,0.12,4.53,0.64,6.58,1.56c2.05,0.92,3.89,2.22,5.52,3.89c1.63,1.67,2.88,3.64,3.76,5.91
			L478.79,569.23z M459.89,569.62c1.54-0.56,2.87-1.38,4-2.46c1.12-1.08,2.01-2.31,2.65-3.69c0.64-1.38,1.01-2.84,1.09-4.39
			c0.08-1.55-0.16-3.09-0.72-4.63c-0.56-1.54-1.37-2.87-2.43-4.01c-1.06-1.13-2.28-2.02-3.66-2.66c-1.38-0.64-2.84-1.01-4.39-1.09
			c-1.55-0.08-3.09,0.15-4.63,0.72c-1.54,0.56-2.87,1.37-4.01,2.43s-2.02,2.28-2.66,3.66c-0.64,1.38-1.02,2.85-1.12,4.4
			c-0.11,1.56,0.12,3.1,0.68,4.64c0.56,1.54,1.38,2.87,2.46,4c1.08,1.12,2.31,2.01,3.69,2.65c1.38,0.64,2.85,1.02,4.4,1.12
			S458.35,570.18,459.89,569.62z"/>
		<path d="M470.08,533.76l5.09-3.37l11.73,17.73c0.65,0.98,1.44,1.77,2.38,2.38c0.94,0.61,1.94,1.03,3.01,1.25
			c1.07,0.22,2.16,0.23,3.26,0.03c1.1-0.2,2.14-0.62,3.12-1.26c0.98-0.64,1.76-1.43,2.35-2.36c0.59-0.92,1-1.92,1.22-2.99
			c0.22-1.07,0.23-2.16,0.03-3.26c-0.2-1.1-0.62-2.14-1.26-3.12l-11.73-17.73l5.09-3.37l11.77,17.79c1.11,1.68,1.83,3.46,2.15,5.35
			s0.3,3.74-0.07,5.56c-0.37,1.82-1.07,3.53-2.11,5.14c-1.04,1.61-2.4,2.97-4.07,4.08c-1.68,1.11-3.47,1.83-5.38,2.17
			c-1.91,0.34-3.77,0.32-5.59-0.05c-1.81-0.37-3.53-1.07-5.14-2.11c-1.61-1.04-2.97-2.39-4.08-4.07L470.08,533.76z"/>
		<path d="M536.67,526.86c-1.69,1.81-3.62,3.19-5.79,4.15c-2.17,0.95-4.41,1.47-6.72,1.55c-2.32,0.08-4.59-0.28-6.82-1.08
			c-2.23-0.8-4.25-2.05-6.06-3.74c-1.81-1.69-3.19-3.62-4.15-5.79c-0.95-2.17-1.46-4.4-1.52-6.7c-0.06-2.3,0.31-4.56,1.11-6.79
			c0.8-2.23,2.05-4.25,3.74-6.06c1.69-1.81,3.62-3.19,5.79-4.15c2.17-0.95,4.4-1.47,6.7-1.57c2.3-0.1,4.56,0.26,6.79,1.06
			s4.25,2.05,6.06,3.74c1.81,1.69,3.19,3.62,4.15,5.79c0.95,2.17,1.47,4.41,1.55,6.72c0.08,2.32-0.28,4.59-1.08,6.82
			C539.61,523.03,538.36,525.05,536.67,526.86z M514.92,506.55c-1.12,1.2-1.94,2.53-2.47,3.98c-0.53,1.46-0.77,2.95-0.72,4.47
			c0.05,1.52,0.38,3,1,4.44c0.61,1.44,1.52,2.71,2.71,3.83c1.2,1.12,2.53,1.93,4.01,2.44c1.47,0.51,2.97,0.74,4.49,0.69
			c1.52-0.05,3-0.38,4.44-1c1.44-0.61,2.71-1.52,3.83-2.71c1.12-1.2,1.93-2.53,2.44-4.01c0.51-1.47,0.74-2.97,0.69-4.49
			c-0.05-1.52-0.39-2.99-1.02-4.41c-0.63-1.42-1.54-2.69-2.74-3.8c-1.2-1.12-2.52-1.94-3.98-2.47c-1.46-0.53-2.95-0.77-4.47-0.72
			c-1.52,0.05-2.99,0.39-4.41,1.02C517.31,504.45,516.04,505.36,514.92,506.55z M520.14,493.76c-0.64,0.68-1.42,1.04-2.35,1.07
			c-0.93,0.03-1.73-0.27-2.41-0.91c-0.68-0.64-1.04-1.42-1.07-2.35c-0.03-0.92,0.27-1.73,0.91-2.41c0.64-0.68,1.42-1.04,2.35-1.07
			c0.93-0.03,1.73,0.27,2.41,0.91c0.68,0.64,1.04,1.42,1.07,2.35C521.08,492.28,520.78,493.08,520.14,493.76z M542.3,515.99
			l4.21-4.51l3.8,3.54c1.81,1.69,3.19,3.62,4.15,5.79c0.95,2.17,1.46,4.4,1.52,6.7c0.06,2.3-0.31,4.56-1.11,6.79
			c-0.8,2.23-2.05,4.25-3.74,6.06c-1.69,1.81-3.62,3.19-5.79,4.15c-2.17,0.95-4.4,1.48-6.7,1.57c-2.3,0.1-4.56-0.26-6.79-1.06
			c-2.23-0.8-4.25-2.05-6.06-3.74l4.17-4.46c1.2,1.12,2.53,1.93,4.01,2.44c1.47,0.51,2.97,0.74,4.49,0.69
			c1.52-0.05,2.99-0.39,4.41-1.02c1.42-0.63,2.69-1.54,3.8-2.74c1.12-1.2,1.94-2.52,2.47-3.98c0.53-1.46,0.77-2.95,0.72-4.47
			c-0.05-1.52-0.39-2.99-1.02-4.41c-0.63-1.42-1.54-2.69-2.74-3.8L542.3,515.99z"/>
		<path d="M533.8,470.78c1.09-2.01,2.54-3.74,4.34-5.19c1.8-1.44,3.78-2.51,5.93-3.2c2.16-0.69,4.41-0.98,6.75-0.88
			c2.34,0.1,4.57,0.7,6.69,1.8l1.79,0.97l-13.97,25.71c1.38,0.59,2.8,0.91,4.24,0.95c1.44,0.04,2.82-0.17,4.13-0.63
			c1.31-0.46,2.51-1.14,3.59-2.04c1.08-0.9,1.96-1.99,2.66-3.27c1.12-2.05,1.56-4.19,1.32-6.39c-0.24-2.21-1.02-4.15-2.34-5.83
			l3.32-6.1c1.38,1.39,2.5,2.93,3.36,4.62c0.86,1.7,1.44,3.48,1.72,5.37c0.28,1.88,0.26,3.78-0.05,5.68s-0.97,3.76-1.95,5.57
			c-1.18,2.18-2.71,4-4.57,5.46s-3.9,2.53-6.12,3.18c-2.22,0.66-4.51,0.88-6.87,0.66c-2.36-0.22-4.63-0.92-6.81-2.1
			c-2.18-1.18-4-2.71-5.46-4.57c-1.46-1.86-2.51-3.89-3.15-6.1c-0.64-2.21-0.85-4.49-0.63-6.85
			C531.91,475.22,532.61,472.96,533.8,470.78z M539.16,473.69c-0.67,1.23-1.1,2.52-1.29,3.85c-0.19,1.33-0.17,2.64,0.07,3.91
			c0.24,1.27,0.68,2.49,1.34,3.64s1.51,2.18,2.56,3.07l10.92-20.1c-1.33-0.4-2.65-0.56-3.97-0.48c-1.32,0.08-2.58,0.37-3.78,0.86
			c-1.2,0.49-2.31,1.18-3.32,2.07C540.67,471.4,539.83,472.46,539.16,473.69z"/>
	</g>
	<g>
		<g>
			<g>
				<g>
					<g>
						<g>
							<g>
								<path class="st4" d="M397.95,346.79v-0.01c-0.24,0-0.46,0-0.7,0.01c-0.24,0-0.46-0.01-0.7-0.01v0.01
									c-111.58,0.56-126.3,55.77-126.3,74.54c0,30.3,23.7,54.87,52.93,54.87c21.27,0,43.19-11.22,51.6-29.98
									c8.15,0.85,36.77,0.85,44.92,0c8.41,18.76,30.33,29.98,51.6,29.98c29.23,0,52.93-24.56,52.93-54.87
									C524.24,402.56,509.53,347.35,397.95,346.79z"/>
							</g>
							<g>
								<path class="st5" d="M397.93,350.28v-0.01c-0.23,0-0.45,0.01-0.67,0.01c-0.23,0-0.45-0.01-0.67-0.01v0.01
									c-107.65,0.52-121.84,51.9-121.84,69.37c0,28.2,22.86,51.06,51.06,51.06c20.52,0,38.21-12.11,46.32-29.57
									c7.86,0.79,16.04,1.23,24.45,1.28v0.02c0.23,0,0.45-0.01,0.67-0.01c0.22,0,0.45,0.01,0.67,0.01v-0.02
									c8.41-0.06,16.59-0.49,24.45-1.28c8.11,17.46,25.8,29.57,46.32,29.57c28.2,0,51.06-22.86,51.06-51.06
									C519.76,402.18,505.57,350.8,397.93,350.28z"/>
							</g>
						</g>
						<g class="st6">
							<g>
								<path class="st7" d="M328.49,467.58c-28.2,0-51.07-22.87-51.07-51.07c0-7.15,2.38-19.99,12.58-32.69
									c-12.47,13.68-15.27,28.08-15.27,35.83c0,28.2,22.86,51.06,51.06,51.06c16.28,0,30.75-7.64,40.1-19.5
									C356.58,461.26,343.28,467.58,328.49,467.58z"/>
							</g>
							<g>
								<path class="st7" d="M471.39,467.58c-20.52,0-38.21-12.11-46.32-29.57c-7.86,0.79-16.04,1.22-24.45,1.28v0.02
									c-0.22,0-0.45-0.01-0.67-0.01c-0.23,0-0.45,0.01-0.67,0.01v-0.02c-8.41-0.06-17.84-0.59-25.7-1.38
									c-0.51,1.1-0.87,2.19-1.46,3.25c7.54,0.72,16.43,1.22,24.47,1.27v0.02c0.23,0,0.45-0.01,0.67-0.01
									c0.22,0,0.45,0.01,0.67,0.01v-0.02c8.41-0.06,16.59-0.49,24.45-1.28c8.11,17.46,25.8,29.57,46.32,29.57
									c16.25,0,30.71-7.6,40.06-19.42C499.44,461.31,486.15,467.58,471.39,467.58z"/>
							</g>
						</g>
					</g>
					<g>
						<g class="st6">
							<path class="st8" d="M371.62,442.14c-14.52-35.72,3.06-70.45,18.62-91.77c-101.85,2.48-115.49,52.15-115.49,69.27
								c0,28.2,22.86,51.06,51.06,51.06C345.93,470.71,363.29,459.06,371.62,442.14z"/>
						</g>
						<g class="st6">
							<path class="st8" d="M362.23,455.41c-46.77-33.64-18.06-77.31,7.91-103.84c-83.59,8.08-95.39,52.17-95.39,68.09
								c0,28.2,22.86,51.06,51.06,51.06C340.08,470.71,352.96,464.84,362.23,455.41z"/>
						</g>
					</g>
					<g class="st9">
						<g class="st6">
							<path class="st7" d="M422.68,443.21c14.74-36.26-3.1-71.5-18.89-93.14c103.36,2.51,117.21,52.93,117.21,70.3
								c0,28.62-23.2,51.83-51.83,51.83C448.75,472.21,431.12,460.37,422.68,443.21z"/>
						</g>
						<g class="st6">
							<path class="st7" d="M432.21,456.67c47.46-34.14,18.33-78.46-8.02-105.39c84.83,8.2,96.81,52.94,96.81,69.1
								c0,28.62-23.2,51.83-51.83,51.83C454.69,472.21,441.6,466.25,432.21,456.67z"/>
						</g>
					</g>
				</g>
				<g>
					<g>
						<g>
							<g>
								<path class="st10" d="M363.06,419.65c0,20.57-16.68,37.25-37.25,37.25c-20.57,0-37.25-16.68-37.25-37.25
									c0-20.58,16.68-37.26,37.25-37.26C346.38,382.39,363.06,399.07,363.06,419.65z"/>
							</g>
							<g>
								<path class="st11" d="M360.37,419.65c0,19.09-15.48,34.56-34.57,34.56c-19.09,0-34.57-15.47-34.57-34.56
									c0-19.09,15.48-34.57,34.57-34.57C344.9,385.08,360.37,400.56,360.37,419.65z"/>
							</g>
						</g>
						<g>
							<g>
								<g>
									<path class="st12" d="M332.14,432.24l-5.53-6.53c-0.42-0.5-1.46-0.5-1.88,0l-5.55,6.53l-0.08,0.1v0.04v9.32
										c0,1.91,1.49,3.45,3.32,3.45h6.48c1.83,0,3.32-1.55,3.32-3.45v-9.32v-0.04L332.14,432.24z"/>
								</g>
								<g>
									<path class="st13" d="M320.89,441.7v-9.32v-0.04l0.08-0.1l5.55-6.53c0.01-0.01,0.03-0.02,0.05-0.03
										c-0.44-0.45-1.43-0.45-1.84,0.03l-5.55,6.53l-0.08,0.1v0.04v9.32c0,1.91,1.49,3.45,3.32,3.45h1.79
										C322.38,445.15,320.89,443.6,320.89,441.7z"/>
								</g>
							</g>
							<g>
								<g>
									<path class="st12" d="M332.14,409.59l-5.53,6.53c-0.42,0.49-1.46,0.49-1.88,0l-5.55-6.53l-0.08-0.1v-0.04v-9.32
										c0-1.91,1.49-3.45,3.32-3.45h6.48c1.83,0,3.32,1.55,3.32,3.45v9.32v0.04L332.14,409.59z"/>
								</g>
								<g>
									<path class="st13" d="M326.53,416.11l-5.55-6.53l-0.08-0.1v-0.04v-9.32c0-1.91,1.49-3.45,3.32-3.45h-1.79
										c-1.84,0-3.32,1.55-3.32,3.45v9.32v0.04l0.08,0.1l5.55,6.53c0.41,0.48,1.4,0.48,1.84,0.03
										C326.56,416.13,326.54,416.13,326.53,416.11z"/>
								</g>
							</g>
							<g>
								<g>
									<path class="st12" d="M314.34,414.43l6.53,5.53c0.49,0.42,0.49,1.46,0,1.88l-6.53,5.55l-0.1,0.08h-0.04h-9.32
										c-1.91,0-3.45-1.49-3.45-3.32v-6.48c0-1.84,1.55-3.32,3.45-3.32h9.32h0.04L314.34,414.43z"/>
								</g>
								<g>
									<path class="st13" d="M320.86,420.04l-6.53,5.55l-0.1,0.08h-0.04h-9.32c-1.91,0-3.45-1.49-3.45-3.32v1.79
										c0,1.84,1.55,3.32,3.45,3.32h9.32h0.04l0.1-0.08l6.53-5.55c0.48-0.41,0.48-1.4,0.03-1.84
										C320.88,420.01,320.88,420.04,320.86,420.04z"/>
								</g>
							</g>
							<g>
								<g>
									<path class="st12" d="M336.99,414.43l-6.53,5.53c-0.49,0.42-0.49,1.46,0,1.88l6.53,5.55l0.1,0.08h0.04h9.32
										c1.91,0,3.45-1.49,3.45-3.32v-6.48c0-1.84-1.55-3.32-3.45-3.32h-9.32h-0.04L336.99,414.43z"/>
								</g>
								<g>
									<path class="st13" d="M346.45,425.68h-9.32h-0.04l-0.1-0.08l-6.53-5.55c-0.01-0.01-0.02-0.03-0.03-0.04
										c-0.45,0.44-0.45,1.43,0.03,1.84l6.53,5.55l0.1,0.08h0.04h9.32c1.91,0,3.45-1.49,3.45-3.32v-1.79
										C349.9,424.19,348.36,425.68,346.45,425.68z"/>
								</g>
							</g>
						</g>
						<g>
							<g>
								<g class="st14">
									<path class="st10" d="M308.71,418.15c0-15.02,9.6-27.77,22.98-32.54c-1.92-0.33-3.88-0.54-5.89-0.54
										c-19.09,0-34.57,15.48-34.57,34.57c0,19.09,15.48,34.56,34.57,34.56c4.07,0,7.96-0.74,11.58-2.03
										C321.11,449.38,308.71,435.23,308.71,418.15z"/>
								</g>
								<g class="st14">
									<path class="st10" d="M302.14,418.45c0-15.9,10.74-29.25,25.35-33.29c-0.56-0.02-1.12-0.08-1.69-0.08
										c-19.09,0-34.57,15.48-34.57,34.57c0,19.09,15.48,34.56,34.57,34.56c3.2,0,6.28-0.47,9.21-1.28
										C316.72,452.05,302.14,436.97,302.14,418.45z"/>
								</g>
							</g>
							<g>
								<g class="st15">
									<path class="st7" d="M345.92,398.59c6.8,5.19,11.21,13.35,11.21,22.57c0,15.68-12.71,28.39-28.39,28.39
										c-5.71,0-11.01-1.7-15.46-4.6c4.77,3.64,10.72,5.83,17.18,5.83c15.68,0,28.39-12.71,28.39-28.39
										C358.85,412.41,353.7,403.66,345.92,398.59z"/>
								</g>
								<g class="st15">
									<path class="st7" d="M299.68,422.25c0-16.59,13.45-30.04,30.03-30.04c4.83,0,9.37,1.17,13.41,3.19
										c-5.35-4.95-12.49-8-20.36-8c-16.59,0-30.03,13.45-30.03,30.03c0,11.76,6.78,21.91,16.62,26.84
										C303.42,438.8,299.68,430.97,299.68,422.25z"/>
								</g>
							</g>
						</g>
					</g>
					<g>
						<g>
							<g>
								<path class="st10" d="M509.98,419.65c0,20.57-16.68,37.25-37.25,37.25c-20.57,0-37.25-16.68-37.25-37.25
									c0-20.58,16.68-37.26,37.25-37.26C493.31,382.39,509.98,399.07,509.98,419.65z"/>
							</g>
							<g>
								<path class="st11" d="M507.3,419.65c0,19.09-15.48,34.56-34.57,34.56c-19.09,0-34.57-15.47-34.57-34.56
									c0-19.09,15.48-34.57,34.57-34.57C491.82,385.08,507.3,400.56,507.3,419.65z"/>
							</g>
						</g>
						<g>
							<g>
								<g>
									<g>
										<path class="st16" d="M480.2,403.52c0,4.12-3.34,7.47-7.47,7.47c-4.12,0-7.47-3.34-7.47-7.47c0-4.12,3.34-7.47,7.47-7.47
											C476.85,396.06,480.2,399.4,480.2,403.52z"/>
									</g>
									<g>
										<path class="st17" d="M467.28,406.32c0-4.12,3.34-7.47,7.47-7.47c1.88,0,3.59,0.72,4.9,1.87
											c-1.11-2.74-3.78-4.67-6.91-4.67c-4.12,0-7.47,3.34-7.47,7.47c0,2.24,1.01,4.23,2.57,5.59
											C467.48,408.25,467.28,407.31,467.28,406.32z"/>
									</g>
								</g>
								<g>
									<g>
										<path class="st18" d="M465.26,437.56c0,4.12,3.34,7.47,7.47,7.47c4.12,0,7.47-3.34,7.47-7.47c0-4.12-3.34-7.47-7.47-7.47
											C468.61,430.1,465.26,433.44,465.26,437.56z"/>
									</g>
									<g>
										<path class="st19" d="M466.72,440.37c0-4.12,3.34-7.47,7.47-7.47c2.31,0,4.35,1.07,5.72,2.72
											c-0.86-3.17-3.73-5.52-7.18-5.52c-4.12,0-7.47,3.34-7.47,7.47c0,1.81,0.67,3.45,1.74,4.74
											C466.84,441.68,466.72,441.04,466.72,440.37z"/>
									</g>
								</g>
								<g>
									<g>
										<path class="st12" d="M489.75,413.08c-4.12,0-7.47,3.34-7.47,7.47c0,4.12,3.34,7.46,7.47,7.46c4.12,0,7.47-3.34,7.47-7.46
											C497.22,416.42,493.88,413.08,489.75,413.08z"/>
									</g>
									<g>
										<path class="st20" d="M484.08,423.01c0-4.12,3.34-7.46,7.47-7.46c1.94,0,3.69,0.76,5.02,1.97
											c-1.16-2.61-3.77-4.44-6.81-4.44c-4.12,0-7.47,3.34-7.47,7.47c0,2.18,0.95,4.13,2.45,5.49
											C484.32,425.11,484.08,424.09,484.08,423.01z"/>
									</g>
								</g>
								<g>
									<g>
										<path class="st21" d="M455.71,428.01c-4.12,0-7.47-3.34-7.47-7.46c0-4.12,3.34-7.47,7.47-7.47c4.12,0,7.47,3.34,7.47,7.47
											C463.18,424.67,459.83,428.01,455.71,428.01z"/>
									</g>
									<g>
										<path class="st22" d="M450.04,422.78c0-4.12,3.34-7.47,7.47-7.47c1.84,0,3.5,0.69,4.8,1.79
											c-1.25-2.39-3.71-4.03-6.59-4.03c-4.12,0-7.47,3.34-7.47,7.47c0,2.28,1.05,4.3,2.66,5.67
											C450.37,425.18,450.04,424.03,450.04,422.78z"/>
									</g>
								</g>
							</g>
							<g>
								<g>
									<g class="st14">
										<path class="st10" d="M455.63,418.15c0-15.02,9.6-27.77,22.98-32.54c-1.92-0.33-3.88-0.54-5.89-0.54
											c-19.09,0-34.57,15.48-34.57,34.57c0,19.09,15.48,34.56,34.57,34.56c4.07,0,7.96-0.74,11.58-2.03
											C468.03,449.38,455.63,435.23,455.63,418.15z"/>
									</g>
									<g class="st14">
										<path class="st10" d="M449.06,418.45c0-15.9,10.74-29.25,25.35-33.29c-0.56-0.02-1.12-0.08-1.69-0.08
											c-19.09,0-34.57,15.48-34.57,34.57c0,19.09,15.48,34.56,34.57,34.56c3.2,0,6.28-0.47,9.21-1.28
											C463.64,452.05,449.06,436.97,449.06,418.45z"/>
									</g>
								</g>
								<g>
									<g class="st15">
										<path class="st7" d="M492.85,398.59c6.8,5.19,11.21,13.35,11.21,22.57c0,15.68-12.71,28.39-28.39,28.39
											c-5.71,0-11.01-1.7-15.46-4.6c4.77,3.64,10.72,5.83,17.18,5.83c15.68,0,28.39-12.71,28.39-28.39
											C505.78,412.41,500.62,403.66,492.85,398.59z"/>
									</g>
									<g class="st15">
										<path class="st7" d="M446.6,422.25c0-16.59,13.45-30.04,30.03-30.04c4.83,0,9.37,1.17,13.41,3.19
											c-5.35-4.95-12.49-8-20.36-8c-16.59,0-30.03,13.45-30.03,30.03c0,11.76,6.78,21.91,16.62,26.84
											C450.34,438.8,446.6,430.97,446.6,422.25z"/>
									</g>
								</g>
							</g>
						</g>
					</g>
				</g>
				<g>
					<g>
						<path class="st4" d="M390.98,431.07c0,1.36-1.1,2.46-2.46,2.46h-8.73c-1.36,0-2.46-1.1-2.46-2.46l0,0
							c0-1.36,1.1-2.46,2.46-2.46h8.73C389.88,428.61,390.98,429.71,390.98,431.07L390.98,431.07z"/>
					</g>
					<g>
						<path class="st23" d="M389.3,432.53h-8.73c-1.36,0-2.46-1.1-2.46-2.46c0-0.33,0.07-0.65,0.19-0.94
							c-0.59,0.45-0.97,1.15-0.97,1.95c0,1.36,1.1,2.46,2.46,2.46h8.73c1.03,0,1.91-0.63,2.28-1.52
							C390.38,432.33,389.86,432.53,389.3,432.53z"/>
					</g>
				</g>
				<g>
					<g>
						<path class="st4" d="M417.86,431.07c0,1.36-1.1,2.46-2.46,2.46h-8.74c-1.36,0-2.46-1.1-2.46-2.46l0,0
							c0-1.36,1.1-2.46,2.46-2.46h8.74C416.76,428.61,417.86,429.71,417.86,431.07L417.86,431.07z"/>
					</g>
					<g>
						<path class="st23" d="M416.18,432.53h-8.73c-1.36,0-2.46-1.1-2.46-2.46c0-0.33,0.07-0.65,0.19-0.94
							c-0.59,0.45-0.97,1.15-0.97,1.95c0,1.36,1.1,2.46,2.46,2.46h8.74c1.03,0,1.91-0.63,2.28-1.52
							C417.25,432.33,416.74,432.53,416.18,432.53z"/>
					</g>
				</g>
			</g>
		</g>
		<circle class="st24" cx="397.83" cy="389.03" r="7.06"/>
	</g>
	<g>
		<path class="st1" d="M229.43,391.79c1.02-43.38,18.4-84.01,49.19-114.8c31.75-31.75,73.97-49.24,118.87-49.24
			c44.9,0,87.12,17.49,118.87,49.24c30.79,30.79,48.17,71.42,49.19,114.8h9.17c-1.03-45.83-19.35-88.76-51.87-121.28
			c-33.48-33.48-78-51.92-125.35-51.92c-47.35,0-91.87,18.44-125.35,51.92c-32.52,32.52-50.85,75.45-51.87,121.28H229.43z"/>
		<g>
			<rect x="396.2" y="237.58" class="st25" width="2.58" height="28.25"/>
			
				<rect x="508.94" y="322.92" transform="matrix(0.8659 -0.5003 0.5003 0.8659 -92.0333 305.1712)" class="st25" width="28.25" height="2.58"/>
			
				<rect x="455.87" y="269.84" transform="matrix(0.5006 -0.8657 0.8657 0.5006 -0.0103 542.2451)" class="st25" width="28.25" height="2.58"/>
			
				<rect x="270.62" y="310.09" transform="matrix(0.5 -0.866 0.866 0.5 -144.8239 397.57)" class="st25" width="2.58" height="28.25"/>
			
				<rect x="323.69" y="257.01" transform="matrix(0.8661 -0.5 0.5 0.8661 -92.0233 198.7927)" class="st25" width="2.58" height="28.25"/>
			<g>
				
					<rect x="380.13" y="238.42" transform="matrix(0.9945 -0.1045 0.1045 0.9945 -23.3976 41.204)" class="st25" width="2.58" height="10.82"/>
				
					<rect x="364.24" y="240.94" transform="matrix(0.9782 -0.2076 0.2076 0.9782 -43.1845 81.2645)" class="st25" width="2.58" height="10.82"/>
				
					<rect x="348.69" y="245.11" transform="matrix(0.9512 -0.3087 0.3087 0.9512 -60.2385 120.2689)" class="st25" width="2.58" height="10.82"/>
				
					<rect x="333.67" y="250.87" transform="matrix(0.9138 -0.4062 0.4062 0.9138 -75.2272 158.1776)" class="st25" width="2.58" height="10.82"/>
			</g>
			<g>
				
					<rect x="408.14" y="242.54" transform="matrix(0.1055 -0.9944 0.9944 0.1055 127.4673 629.3665)" class="st25" width="10.82" height="2.58"/>
				
					<rect x="424.04" y="245.06" transform="matrix(0.2071 -0.9783 0.9783 0.2071 99.511 615.4761)" class="st25" width="10.82" height="2.58"/>
				
					<rect x="439.58" y="249.23" transform="matrix(0.3087 -0.9512 0.9512 0.3087 69.3453 596.4405)" class="st25" width="10.82" height="2.58"/>
				
					<rect x="454.6" y="254.99" transform="matrix(0.4063 -0.9137 0.9137 0.4063 38.9246 572.4711)" class="st25" width="10.82" height="2.58"/>
			</g>
			<g>
				<polygon class="st25" points="545.12,382.49 544.85,379.93 555.61,378.8 555.88,381.36 				"/>
				
					<rect x="542.44" y="363.46" transform="matrix(0.9784 -0.2068 0.2068 0.9784 -63.5928 121.1917)" class="st25" width="10.82" height="2.58"/>
				
					<rect x="538.27" y="347.92" transform="matrix(0.9512 -0.3087 0.3087 0.9512 -81.2407 184.8647)" class="st25" width="10.82" height="2.58"/>
				
					<rect x="532.51" y="332.9" transform="matrix(0.9139 -0.4059 0.4059 0.9139 -89.3373 247.0757)" class="st25" width="10.82" height="2.58"/>
			</g>
			<g>
				
					<rect x="307.06" y="266.07" transform="matrix(0.8148 -0.5798 0.5798 0.8148 -100.283 229.0713)" class="st25" width="2.58" height="10.82"/>
				
					<rect x="294.45" y="276.07" transform="matrix(0.7498 -0.6617 0.6617 0.7498 -112.2502 266.1289)" class="st25" width="2.58" height="10.82"/>
				
					<rect x="282.97" y="287.34" transform="matrix(0.6765 -0.7364 0.7364 0.6765 -123.6331 304.0342)" class="st25" width="2.58" height="10.82"/>
				
					<rect x="272.72" y="299.74" transform="matrix(0.5962 -0.8029 0.8029 0.5962 -134.3387 343.2295)" class="st25" width="2.58" height="10.82"/>
			</g>
			<g>
				
					<rect x="517.31" y="306.28" transform="matrix(0.8144 -0.5803 0.5803 0.8144 -81.4702 360.4056)" class="st25" width="10.82" height="2.58"/>
				
					<rect x="507.31" y="293.68" transform="matrix(0.7496 -0.6619 0.6619 0.7496 -66.8461 413.2563)" class="st25" width="10.82" height="2.58"/>
				
					<rect x="496.04" y="282.19" transform="matrix(0.6762 -0.7368 0.7368 0.6762 -46.4661 461.2554)" class="st25" width="10.82" height="2.58"/>
				
					<rect x="483.64" y="271.95" transform="matrix(0.596 -0.803 0.803 0.596 -21.839 503.0619)" class="st25" width="10.82" height="2.58"/>
			</g>
			<g>
				<polygon class="st25" points="249.85,382.49 239.09,381.36 239.36,378.8 250.12,379.93 				"/>
				
					<rect x="245.83" y="359.34" transform="matrix(0.2077 -0.9782 0.9782 0.2077 -161.0076 530.7159)" class="st25" width="2.58" height="10.82"/>
				
					<rect x="250" y="343.8" transform="matrix(0.3087 -0.9511 0.9511 0.3087 -158.444 480.4097)" class="st25" width="2.58" height="10.82"/>
				
					<rect x="255.76" y="328.78" transform="matrix(0.4062 -0.9138 0.9138 0.4062 -152.7375 433.3326)" class="st25" width="2.58" height="10.82"/>
			</g>
		</g>
		<path class="st25" d="M398.62,377.4c-5.95,0-10.77,4.82-10.77,10.77c0,5.95,4.82,10.77,10.77,10.77c5.95,0,10.77-4.82,10.77-10.77
			C409.39,382.22,404.57,377.4,398.62,377.4z M398.62,393.3c-2.83,0-5.13-2.3-5.13-5.13c0-2.83,2.3-5.13,5.13-5.13
			c2.83,0,5.13,2.3,5.13,5.13C403.75,391,401.45,393.3,398.62,393.3z"/>
		<g>
			<path class="st25" d="M407.11,381.57l46.1-106.7L398.65,377.4C402.09,377.41,405.15,379.04,407.11,381.57z"/>
			<path class="st25" d="M389.71,394.2l-10.57,19.85h7.43l3.84,6.15l9.22-21.33c-0.33,0.03-0.67,0.05-1.01,0.05
				C394.91,398.93,391.64,397.06,389.71,394.2z"/>
		</g>
	</g>
</g>
</svg>
