<?xml version="1.0" encoding="UTF-8" standalone="no"?>
<!DOCTYPE svg PUBLIC "-//W3C//DTD SVG 1.1//EN" "http://www.w3.org/Graphics/SVG/1.1/DTD/svg11.dtd">
<svg width="100%" height="100%" viewBox="0 0 800 800" version="1.1" xmlns="http://www.w3.org/2000/svg" xmlns:xlink="http://www.w3.org/1999/xlink" xml:space="preserve" xmlns:serif="http://www.serif.com/" style="fill-rule:evenodd;clip-rule:evenodd;stroke-linejoin:round;stroke-miterlimit:2;">
    <g>
        <g>
            <g>
                <path d="M400,627.81C274.39,627.81 172.19,525.62 172.19,400C172.19,274.38 274.39,172.19 400,172.19C525.61,172.19 627.81,274.39 627.81,400C627.81,525.61 525.61,627.81 400,627.81ZM400,177.28C277.19,177.28 177.28,277.19 177.28,400C177.28,522.81 277.19,622.72 400,622.72C522.81,622.72 622.72,522.81 622.72,400C622.72,277.19 522.81,177.28 400,177.28Z" style="fill:rgb(77,64,117);fill-rule:nonzero;"/>
            </g>
            <g>
                <path d="M400,633.92C271.02,633.92 166.08,528.99 166.08,400C166.08,271.01 271.02,166.08 400,166.08C528.98,166.08 633.92,271.02 633.92,400C633.92,528.98 528.98,633.92 400,633.92ZM400,167.78C271.95,167.78 167.78,271.95 167.78,400C167.78,528.05 271.95,632.22 400,632.22C528.05,632.22 632.22,528.05 632.22,400C632.22,271.95 528.05,167.78 400,167.78Z" style="fill:rgb(77,64,117);fill-rule:nonzero;"/>
            </g>
        </g>
        <g>
            <g>
                <path d="M383.69,336.09L367.96,336.09L367.96,320.36L383.69,320.36L383.69,336.09ZM368.81,335.24L382.84,335.24L382.84,321.21L368.81,321.21L368.81,335.24Z" style="fill:rgb(77,64,117);fill-rule:nonzero;"/>
            </g>
            <g>
                <rect x="457.74" y="316.82" width="8.15" height="8.77" style="fill:rgb(77,64,117);"/>
            </g>
            <g>
                <rect x="402.36" y="299.58" width="14.79" height="5.05" style="fill:rgb(77,64,117);"/>
            </g>
            <g>
                <rect x="336.8" y="504.01" width="6.12" height="6.12" style="fill:rgb(77,64,117);"/>
            </g>
            <g>
                <rect x="384.03" y="477.8" width="6.12" height="6.12" style="fill:rgb(77,64,117);"/>
            </g>
            <g opacity="0.19">
                <rect x="361.19" y="517.31" width="13.53" height="4.62" style="fill:rgb(77,64,117);"/>
            </g>
            <g>
                <path d="M397.46,504.43L383.24,504.43L383.24,489.32L397.46,489.32L397.46,504.43ZM384.09,503.58L396.61,503.58L396.61,490.17L384.09,490.17L384.09,503.58Z" style="fill:rgb(77,64,117);fill-rule:nonzero;"/>
            </g>
            <g>
                <rect x="349.69" y="496.88" width="13.37" height="14.26" style="fill:rgb(77,64,117);"/>
            </g>
            <g opacity="0.19">
                <rect x="428.36" y="486.09" width="8.16" height="8.16" style="fill:rgb(77,64,117);"/>
            </g>
            <g opacity="0.19">
                <g transform="matrix(-0,1,-1,-0,944.7872,-142.2494)">
                    <rect x="538.82" y="396.58" width="9.39" height="9.39" style="fill:rgb(77,64,117);"/>
                </g>
            </g>
            <g transform="matrix(-0,1,-1,-0,991.2429,-150.14)">
                <rect x="568.58" y="418.44" width="4.22" height="4.22" style="fill:rgb(77,64,117);"/>
            </g>
            <g transform="matrix(-0,1,-1,-0,978.2678,-111.5469)">
                <rect x="542.34" y="430.59" width="5.14" height="5.53" style="fill:rgb(77,64,117);"/>
            </g>
            <g transform="matrix(-0,1,-1,-0,977.354,-219.7585)">
                <rect x="593.89" y="377.21" width="9.33" height="3.18" style="fill:rgb(77,64,117);"/>
            </g>
            <g transform="matrix(-0,1,-1,-0,1024.4875,-147.9051)">
                <rect x="583.84" y="435.93" width="4.72" height="4.72" style="fill:rgb(77,64,117);"/>
            </g>
            <g transform="matrix(-0,1,-1,-0,1076.0398,-134.3239)">
                <rect x="602.82" y="468.5" width="4.72" height="4.72" style="fill:rgb(77,64,117);"/>
            </g>
            <g transform="matrix(-0,1,-1,-0,1034.7963,-119.4655)">
                <rect x="571.77" y="456.74" width="10.73" height="1.84" style="fill:rgb(77,64,117);"/>
            </g>
            <g opacity="0.54">
                <g transform="matrix(-0,1,-1,-0,1038.3329,-176.7522)">
                    <rect x="602.93" y="425.87" width="9.22" height="9.83" style="fill:rgb(77,64,117);"/>
                </g>
            </g>
            <g>
                <path d="M589.86,495.17L579.17,495.17L579.17,485.1L589.86,485.1L589.86,495.17ZM580.02,494.32L589,494.32L589,485.95L580.02,485.95L580.02,494.32Z" style="fill:rgb(77,64,117);fill-rule:nonzero;"/>
            </g>
            <g transform="matrix(-0,1,-1,-0,662.8088,211.0094)">
                <rect x="223.54" y="434.55" width="4.72" height="4.72" style="fill:rgb(77,64,117);"/>
            </g>
            <g transform="matrix(-0,1,-1,-0,621.5652,225.8677)">
                <rect x="192.48" y="422.79" width="10.73" height="1.84" style="fill:rgb(77,64,117);"/>
            </g>
            <g opacity="0.54">
                <g transform="matrix(-0,1,-1,-0,624.0795,206.4238)">
                    <rect x="204.22" y="410.33" width="9.22" height="9.83" style="fill:rgb(77,64,117);"/>
                </g>
            </g>
            <g>
                <path d="M210.57,461.22L199.88,461.22L199.88,451.15L210.57,451.15L210.57,461.22ZM200.74,460.37L209.72,460.37L209.72,452L200.74,452L200.74,460.37Z" style="fill:rgb(77,64,117);fill-rule:nonzero;"/>
            </g>
            <g transform="matrix(-1,-0,0,-1,723.7483,585.4903)">
                <rect x="354.36" y="284.73" width="15.03" height="16.03" style="fill:rgb(77,64,117);"/>
            </g>
        </g>
        <g>
            <path d="M249.98,472.02L259.93,490.65C259.56,490.95 259.18,491.24 258.79,491.5C258.4,491.76 257.98,492.01 257.52,492.26C254.96,493.63 252.29,494.43 249.5,494.67C246.71,494.91 244.02,494.64 241.43,493.85C238.83,493.06 236.45,491.8 234.28,490.07C232.11,488.34 230.33,486.17 228.94,483.57C227.57,481.01 226.77,478.34 226.53,475.55C226.29,472.76 226.56,470.07 227.35,467.48C228.14,464.88 229.41,462.5 231.16,460.31C232.91,458.13 235.07,456.35 237.63,454.99C240.23,453.6 242.91,452.79 245.68,452.56C248.45,452.33 251.13,452.61 253.72,453.39C256.32,454.18 258.7,455.45 260.89,457.2C263.07,458.95 264.85,461.11 266.21,463.66L261.14,466.37C260.15,464.51 258.87,462.96 257.29,461.7C255.72,460.45 253.98,459.53 252.08,458.95C250.18,458.37 248.22,458.18 246.19,458.36C244.16,458.54 242.22,459.13 240.37,460.12C238.51,461.11 236.95,462.4 235.67,463.98C234.39,465.56 233.48,467.3 232.92,469.19C232.36,471.08 232.17,473.02 232.34,475.03C232.51,477.04 233.09,478.97 234.08,480.82C234.96,482.47 236.08,483.89 237.43,485.08C238.78,486.27 240.26,487.17 241.87,487.8C243.48,488.43 245.16,488.76 246.91,488.81C248.66,488.86 250.36,488.6 252.02,488.03L244.91,474.72L249.98,472.02Z" style="fill-rule:nonzero;"/>
            <path d="M271.34,538.81L267.12,534.4L271.49,530.23C269.33,530.54 267.14,530.34 264.9,529.63C262.67,528.92 260.69,527.66 258.98,525.87C257.27,524.08 256,522.07 255.17,519.85C254.34,517.63 253.96,515.36 254.01,513.05C254.06,510.73 254.55,508.49 255.48,506.31C256.41,504.13 257.77,502.19 259.56,500.47C261.35,498.76 263.36,497.49 265.58,496.66C267.8,495.83 270.06,495.46 272.36,495.53C274.66,495.6 276.9,496.1 279.08,497.03C281.26,497.96 283.2,499.32 284.92,501.11C286.6,502.87 287.85,504.84 288.68,507.03C289.51,509.22 289.91,511.44 289.89,513.68C289.87,515.93 289.42,518.14 288.55,520.3C287.67,522.46 286.37,524.4 284.64,526.12L271.34,538.81ZM263.4,521.65C264.53,522.83 265.82,523.72 267.26,524.32C268.7,524.92 270.18,525.23 271.71,525.27C273.23,525.31 274.72,525.05 276.17,524.5C277.62,523.95 278.94,523.12 280.12,521.99C281.3,520.86 282.2,519.58 282.81,518.16C283.42,516.74 283.75,515.26 283.78,513.74C283.82,512.22 283.56,510.73 283.02,509.28C282.47,507.83 281.64,506.51 280.51,505.33C279.38,504.15 278.1,503.25 276.68,502.64C275.25,502.03 273.78,501.7 272.26,501.67C270.74,501.64 269.24,501.88 267.78,502.41C266.31,502.94 264.98,503.77 263.8,504.9C262.62,506.03 261.72,507.32 261.13,508.76C260.53,510.2 260.22,511.68 260.18,513.2C260.14,514.72 260.39,516.22 260.92,517.68C261.44,519.14 262.26,520.47 263.4,521.65Z" style="fill-rule:nonzero;"/>
            <path d="M292.17,530.49C293.14,528.73 294.39,527.27 295.91,526.1C297.43,524.94 299.08,524.1 300.87,523.58C302.65,523.07 304.49,522.89 306.4,523.07C308.31,523.24 310.14,523.81 311.91,524.78C314.08,525.98 315.76,527.58 316.96,529.57C318.16,531.57 318.79,533.71 318.87,535.99C320.84,534.83 322.99,534.23 325.32,534.18C327.65,534.13 329.89,534.7 332.07,535.9C333.83,536.87 335.31,538.11 336.51,539.63C337.7,541.14 338.56,542.79 339.07,544.57C339.58,546.35 339.74,548.2 339.54,550.12C339.34,552.04 338.75,553.88 337.78,555.64L327.48,574.32L322.13,571.37L332.43,552.69C333,551.67 333.33,550.61 333.42,549.51C333.52,548.42 333.41,547.34 333.11,546.29C332.81,545.24 332.32,544.28 331.66,543.41C330.99,542.54 330.15,541.81 329.13,541.25C328.11,540.68 327.05,540.35 325.95,540.26C324.85,540.16 323.78,540.27 322.73,540.57C321.68,540.87 320.72,541.36 319.84,542.02C318.96,542.69 318.24,543.53 317.68,544.55L307.38,563.23L301.97,560.25L312.27,541.57C312.84,540.55 313.17,539.49 313.26,538.39C313.36,537.29 313.26,536.23 312.98,535.19C312.7,534.15 312.21,533.19 311.53,532.3C310.84,531.41 309.99,530.69 308.96,530.12C307.93,529.55 306.88,529.22 305.78,529.13C304.68,529.03 303.61,529.14 302.56,529.44C301.51,529.74 300.55,530.23 299.67,530.89C298.79,531.56 298.07,532.4 297.51,533.43L287.21,552.11L281.86,549.16L292.17,530.49Z" style="fill-rule:nonzero;"/>
            <path d="M365.75,546.97C368,547.42 370.08,548.3 371.99,549.59C373.9,550.88 375.5,552.46 376.8,554.32C378.09,556.18 379.04,558.24 379.63,560.51C380.22,562.78 380.31,565.08 379.88,567.43L379.48,569.42L350.79,563.64C350.63,565.14 350.75,566.58 351.13,567.97C351.52,569.36 352.12,570.62 352.95,571.74C353.77,572.86 354.78,573.8 355.96,574.57C357.14,575.33 358.44,575.86 359.87,576.14C362.16,576.6 364.33,576.39 366.37,575.52C368.41,574.64 370.03,573.32 371.25,571.56L378.06,572.93C377.14,574.65 376,576.18 374.63,577.5C373.26,578.83 371.72,579.9 370.01,580.72C368.29,581.54 366.48,582.08 364.56,582.34C362.65,582.6 360.68,582.52 358.66,582.12C356.23,581.63 354.04,580.71 352.09,579.36C350.14,578.01 348.53,576.38 347.25,574.45C345.97,572.52 345.08,570.4 344.6,568.08C344.11,565.76 344.11,563.39 344.6,560.96C345.09,558.53 346.01,556.34 347.36,554.39C348.71,552.44 350.34,550.84 352.27,549.58C354.19,548.32 356.31,547.45 358.63,546.96C360.94,546.47 363.32,546.48 365.75,546.97ZM364.54,552.95C363.16,552.67 361.81,552.64 360.48,552.85C359.15,553.06 357.91,553.47 356.76,554.07C355.61,554.67 354.58,555.46 353.67,556.42C352.76,557.38 352.03,558.5 351.49,559.77L373.92,564.29C373.91,562.91 373.68,561.59 373.21,560.35C372.74,559.11 372.1,557.99 371.27,556.99C370.45,555.99 369.46,555.13 368.32,554.43C367.18,553.73 365.92,553.23 364.54,552.95Z" style="fill-rule:nonzero;"/>
            <path d="M409.01,561.91L430.07,560.32C430.2,560.78 430.3,561.24 430.39,561.7C430.47,562.16 430.53,562.65 430.57,563.16C430.79,566.05 430.45,568.82 429.55,571.47C428.65,574.12 427.31,576.47 425.54,578.53C423.77,580.59 421.66,582.26 419.2,583.55C416.74,584.84 414.04,585.59 411.1,585.82C408.21,586.04 405.44,585.7 402.79,584.79C400.14,583.89 397.79,582.55 395.73,580.79C393.67,579.02 392,576.9 390.71,574.41C389.42,571.93 388.67,569.24 388.45,566.35C388.23,563.41 388.57,560.63 389.47,558C390.37,555.38 391.71,553.03 393.48,550.98C395.25,548.92 397.37,547.25 399.86,545.96C402.34,544.67 405.03,543.91 407.92,543.7L408.35,549.44C406.25,549.6 404.31,550.14 402.53,551.08C400.75,552.01 399.21,553.23 397.92,554.74C396.63,556.25 395.65,557.96 395,559.89C394.35,561.82 394.1,563.83 394.26,565.93C394.42,568.03 394.96,569.98 395.9,571.79C396.83,573.6 398.05,575.13 399.56,576.4C401.06,577.67 402.77,578.63 404.67,579.29C406.57,579.95 408.57,580.19 410.67,580.03C412.53,579.89 414.28,579.44 415.92,578.68C417.56,577.92 418.98,576.94 420.2,575.72C421.42,574.5 422.41,573.1 423.15,571.52C423.9,569.94 424.35,568.27 424.5,566.53L409.45,567.67L409.01,561.91Z" style="fill-rule:nonzero;"/>
            <path d="M478.79,569.23L473.05,571.32L470.98,565.65C470.4,567.75 469.34,569.68 467.79,571.44C466.24,573.2 464.3,574.5 461.97,575.35C459.64,576.2 457.29,576.56 454.93,576.42C452.57,576.29 450.33,575.73 448.24,574.75C446.14,573.77 444.28,572.42 442.66,570.7C441.04,568.98 439.8,566.95 438.95,564.62C438.1,562.29 437.74,559.94 437.88,557.58C438.01,555.22 438.57,552.99 439.56,550.92C440.55,548.84 441.9,546.99 443.62,545.37C445.34,543.75 447.37,542.51 449.7,541.66C451.99,540.83 454.3,540.47 456.63,540.59C458.96,540.71 461.16,541.23 463.21,542.15C465.26,543.07 467.1,544.37 468.73,546.04C470.36,547.71 471.61,549.68 472.49,551.95L478.79,569.23ZM459.89,569.62C461.43,569.06 462.76,568.24 463.89,567.16C465.01,566.08 465.9,564.85 466.54,563.47C467.18,562.09 467.55,560.63 467.63,559.08C467.71,557.53 467.47,555.99 466.91,554.45C466.35,552.91 465.54,551.58 464.48,550.44C463.42,549.31 462.2,548.42 460.82,547.78C459.44,547.14 457.98,546.77 456.43,546.69C454.88,546.61 453.34,546.84 451.8,547.41C450.26,547.97 448.93,548.78 447.79,549.84C446.65,550.9 445.77,552.12 445.13,553.5C444.49,554.88 444.11,556.35 444.01,557.9C443.9,559.46 444.13,561 444.69,562.54C445.25,564.08 446.07,565.41 447.15,566.54C448.23,567.66 449.46,568.55 450.84,569.19C452.22,569.83 453.69,570.21 455.24,570.31C456.79,570.41 458.35,570.18 459.89,569.62Z" style="fill-rule:nonzero;"/>
            <path d="M470.08,533.76L475.17,530.39L486.9,548.12C487.55,549.1 488.34,549.89 489.28,550.5C490.22,551.11 491.22,551.53 492.29,551.75C493.36,551.97 494.45,551.98 495.55,551.78C496.65,551.58 497.69,551.16 498.67,550.52C499.65,549.88 500.43,549.09 501.02,548.16C501.61,547.24 502.02,546.24 502.24,545.17C502.46,544.1 502.47,543.01 502.27,541.91C502.07,540.81 501.65,539.77 501.01,538.79L489.28,521.06L494.37,517.69L506.14,535.48C507.25,537.16 507.97,538.94 508.29,540.83C508.61,542.72 508.59,544.57 508.22,546.39C507.85,548.21 507.15,549.92 506.11,551.53C505.07,553.14 503.71,554.5 502.04,555.61C500.36,556.72 498.57,557.44 496.66,557.78C494.75,558.12 492.89,558.1 491.07,557.73C489.26,557.36 487.54,556.66 485.93,555.62C484.32,554.58 482.96,553.23 481.85,551.55L470.08,533.76Z" style="fill-rule:nonzero;"/>
            <path d="M536.67,526.86C534.98,528.67 533.05,530.05 530.88,531.01C528.71,531.96 526.47,532.48 524.16,532.56C521.84,532.64 519.57,532.28 517.34,531.48C515.11,530.68 513.09,529.43 511.28,527.74C509.47,526.05 508.09,524.12 507.13,521.95C506.18,519.78 505.67,517.55 505.61,515.25C505.55,512.95 505.92,510.69 506.72,508.46C507.52,506.23 508.77,504.21 510.46,502.4C512.15,500.59 514.08,499.21 516.25,498.25C518.42,497.3 520.65,496.78 522.95,496.68C525.25,496.58 527.51,496.94 529.74,497.74C531.97,498.54 533.99,499.79 535.8,501.48C537.61,503.17 538.99,505.1 539.95,507.27C540.9,509.44 541.42,511.68 541.5,513.99C541.58,516.31 541.22,518.58 540.42,520.81C539.61,523.03 538.36,525.05 536.67,526.86ZM514.92,506.55C513.8,507.75 512.98,509.08 512.45,510.53C511.92,511.99 511.68,513.48 511.73,515C511.78,516.52 512.11,518 512.73,519.44C513.34,520.88 514.25,522.15 515.44,523.27C516.64,524.39 517.97,525.2 519.45,525.71C520.92,526.22 522.42,526.45 523.94,526.4C525.46,526.35 526.94,526.02 528.38,525.4C529.82,524.79 531.09,523.88 532.21,522.69C533.33,521.49 534.14,520.16 534.65,518.68C535.16,517.21 535.39,515.71 535.34,514.19C535.29,512.67 534.95,511.2 534.32,509.78C533.69,508.36 532.78,507.09 531.58,505.98C530.38,504.86 529.06,504.04 527.6,503.51C526.14,502.98 524.65,502.74 523.13,502.79C521.61,502.84 520.14,503.18 518.72,503.81C517.31,504.45 516.04,505.36 514.92,506.55ZM520.14,493.76C519.5,494.44 518.72,494.8 517.79,494.83C516.86,494.86 516.06,494.56 515.38,493.92C514.7,493.28 514.34,492.5 514.31,491.57C514.28,490.65 514.58,489.84 515.22,489.16C515.86,488.48 516.64,488.12 517.57,488.09C518.5,488.06 519.3,488.36 519.98,489C520.66,489.64 521.02,490.42 521.05,491.35C521.08,492.28 520.78,493.08 520.14,493.76ZM542.3,515.99L546.51,511.48L550.31,515.02C552.12,516.71 553.5,518.64 554.46,520.81C555.41,522.98 555.92,525.21 555.98,527.51C556.04,529.81 555.67,532.07 554.87,534.3C554.07,536.53 552.82,538.55 551.13,540.36C549.44,542.17 547.51,543.55 545.34,544.51C543.17,545.46 540.94,545.99 538.64,546.08C536.34,546.18 534.08,545.82 531.85,545.02C529.62,544.22 527.6,542.97 525.79,541.28L529.96,536.82C531.16,537.94 532.49,538.75 533.97,539.26C535.44,539.77 536.94,540 538.46,539.95C539.98,539.9 541.45,539.56 542.87,538.93C544.29,538.3 545.56,537.39 546.67,536.19C547.79,534.99 548.61,533.67 549.14,532.21C549.67,530.75 549.91,529.26 549.86,527.74C549.81,526.22 549.47,524.75 548.84,523.33C548.21,521.91 547.3,520.64 546.1,519.53L542.3,515.99Z" style="fill-rule:nonzero;"/>
            <path d="M533.8,470.78C534.89,468.77 536.34,467.04 538.14,465.59C539.94,464.15 541.92,463.08 544.07,462.39C546.23,461.7 548.48,461.41 550.82,461.51C553.16,461.61 555.39,462.21 557.51,463.31L559.3,464.28L545.33,489.99C546.71,490.58 548.13,490.9 549.57,490.94C551.01,490.98 552.39,490.77 553.7,490.31C555.01,489.85 556.21,489.17 557.29,488.27C558.37,487.37 559.25,486.28 559.95,485C561.07,482.95 561.51,480.81 561.27,478.61C561.03,476.4 560.25,474.46 558.93,472.78L562.25,466.68C563.63,468.07 564.75,469.61 565.61,471.3C566.47,473 567.05,474.78 567.33,476.67C567.61,478.55 567.59,480.45 567.28,482.35C566.97,484.25 566.31,486.11 565.33,487.92C564.15,490.1 562.62,491.92 560.76,493.38C558.9,494.84 556.86,495.91 554.64,496.56C552.42,497.22 550.13,497.44 547.77,497.22C545.41,497 543.14,496.3 540.96,495.12C538.78,493.94 536.96,492.41 535.5,490.55C534.04,488.69 532.99,486.66 532.35,484.45C531.71,482.24 531.5,479.96 531.72,477.6C531.91,475.22 532.61,472.96 533.8,470.78ZM539.16,473.69C538.49,474.92 538.06,476.21 537.87,477.54C537.68,478.87 537.7,480.18 537.94,481.45C538.18,482.72 538.62,483.94 539.28,485.09C539.94,486.24 540.79,487.27 541.84,488.16L552.76,468.06C551.43,467.66 550.11,467.5 548.79,467.58C547.47,467.66 546.21,467.95 545.01,468.44C543.81,468.93 542.7,469.62 541.69,470.51C540.67,471.4 539.83,472.46 539.16,473.69Z" style="fill-rule:nonzero;"/>
        </g>
        <g>
            <g>
                <g>
                    <g>
                        <g>
                            <g>
                                <g>
                                    <path d="M397.95,346.79L397.95,346.78C397.71,346.78 397.49,346.78 397.25,346.79C397.01,346.79 396.79,346.78 396.55,346.78L396.55,346.79C284.97,347.35 270.25,402.56 270.25,421.33C270.25,451.63 293.95,476.2 323.18,476.2C344.45,476.2 366.37,464.98 374.78,446.22C382.93,447.07 411.55,447.07 419.7,446.22C428.11,464.98 450.03,476.2 471.3,476.2C500.53,476.2 524.23,451.64 524.23,421.33C524.24,402.56 509.53,347.35 397.95,346.79Z" style="fill:rgb(74,91,137);fill-rule:nonzero;"/>
                                </g>
                                <g>
                                    <path d="M397.93,350.28L397.93,350.27C397.7,350.27 397.48,350.28 397.26,350.28C397.03,350.28 396.81,350.27 396.59,350.27L396.59,350.28C288.94,350.8 274.75,402.18 274.75,419.65C274.75,447.85 297.61,470.71 325.81,470.71C346.33,470.71 364.02,458.6 372.13,441.14C379.99,441.93 388.17,442.37 396.58,442.42L396.58,442.44C396.81,442.44 397.03,442.43 397.25,442.43C397.47,442.43 397.7,442.44 397.92,442.44L397.92,442.42C406.33,442.36 414.51,441.93 422.37,441.14C430.48,458.6 448.17,470.71 468.69,470.71C496.89,470.71 519.75,447.85 519.75,419.65C519.76,402.18 505.57,350.8 397.93,350.28Z" style="fill:rgb(107,129,201);fill-rule:nonzero;"/>
                                </g>
                            </g>
                            <g opacity="0.5">
                                <g>
                                    <path d="M328.49,467.58C300.29,467.58 277.42,444.71 277.42,416.51C277.42,409.36 279.8,396.52 290,383.82C277.53,397.5 274.73,411.9 274.73,419.65C274.73,447.85 297.59,470.71 325.79,470.71C342.07,470.71 356.54,463.07 365.89,451.21C356.58,461.26 343.28,467.58 328.49,467.58Z" style="fill:white;fill-rule:nonzero;"/>
                                </g>
                                <g>
                                    <path d="M471.39,467.58C450.87,467.58 433.18,455.47 425.07,438.01C417.21,438.8 409.03,439.23 400.62,439.29L400.62,439.31C400.4,439.31 400.17,439.3 399.95,439.3C399.72,439.3 399.5,439.31 399.28,439.31L399.28,439.29C390.87,439.23 381.44,438.7 373.58,437.91C373.07,439.01 372.71,440.1 372.12,441.16C379.66,441.88 388.55,442.38 396.59,442.43L396.59,442.45C396.82,442.45 397.04,442.44 397.26,442.44C397.48,442.44 397.71,442.45 397.93,442.45L397.93,442.43C406.34,442.37 414.52,441.94 422.38,441.15C430.49,458.61 448.18,470.72 468.7,470.72C484.95,470.72 499.41,463.12 508.76,451.3C499.44,461.31 486.15,467.58 471.39,467.58Z" style="fill:white;fill-rule:nonzero;"/>
                                </g>
                            </g>
                        </g>
                        <g>
                            <g opacity="0.5">
                                <path d="M371.62,442.14C357.1,406.42 374.68,371.69 390.24,350.37C288.39,352.85 274.75,402.52 274.75,419.64C274.75,447.84 297.61,470.7 325.81,470.7C345.93,470.71 363.29,459.06 371.62,442.14Z" style="fill:rgb(78,97,137);fill-rule:nonzero;"/>
                            </g>
                            <g opacity="0.5">
                                <path d="M362.23,455.41C315.46,421.77 344.17,378.1 370.14,351.57C286.55,359.65 274.75,403.74 274.75,419.66C274.75,447.86 297.61,470.72 325.81,470.72C340.08,470.71 352.96,464.84 362.23,455.41Z" style="fill:rgb(78,97,137);fill-rule:nonzero;"/>
                            </g>
                        </g>
                        <g opacity="0.3">
                            <g opacity="0.5">
                                <path d="M422.68,443.21C437.42,406.95 419.58,371.71 403.79,350.07C507.15,352.58 521,403 521,420.37C521,448.99 497.8,472.2 469.17,472.2C448.75,472.21 431.12,460.37 422.68,443.21Z" style="fill:white;fill-rule:nonzero;"/>
                            </g>
                            <g opacity="0.5">
                                <path d="M432.21,456.67C479.67,422.53 450.54,378.21 424.19,351.28C509.02,359.48 521,404.22 521,420.38C521,449 497.8,472.21 469.17,472.21C454.69,472.21 441.6,466.25 432.21,456.67Z" style="fill:white;fill-rule:nonzero;"/>
                            </g>
                        </g>
                    </g>
                    <g>
                        <g>
                            <g>
                                <g>
                                    <path d="M363.06,419.65C363.06,440.22 346.38,456.9 325.81,456.9C305.24,456.9 288.56,440.22 288.56,419.65C288.56,399.07 305.24,382.39 325.81,382.39C346.38,382.39 363.06,399.07 363.06,419.65Z" style="fill:rgb(55,69,96);fill-rule:nonzero;"/>
                                </g>
                                <g>
                                    <path d="M360.37,419.65C360.37,438.74 344.89,454.21 325.8,454.21C306.71,454.21 291.23,438.74 291.23,419.65C291.23,400.56 306.71,385.08 325.8,385.08C344.9,385.08 360.37,400.56 360.37,419.65Z" style="fill:rgb(80,97,147);fill-rule:nonzero;"/>
                                </g>
                            </g>
                            <g>
                                <g>
                                    <g>
                                        <path d="M332.14,432.24L326.61,425.71C326.19,425.21 325.15,425.21 324.73,425.71L319.18,432.24L319.1,432.34L319.1,441.7C319.1,443.61 320.59,445.15 322.42,445.15L328.9,445.15C330.73,445.15 332.22,443.6 332.22,441.7L332.22,432.34L332.14,432.24Z" style="fill:rgb(251,185,75);fill-rule:nonzero;"/>
                                    </g>
                                    <g>
                                        <path d="M320.89,441.7L320.89,432.34L320.97,432.24L326.52,425.71C326.53,425.7 326.55,425.69 326.57,425.68C326.13,425.23 325.14,425.23 324.73,425.71L319.18,432.24L319.1,432.34L319.1,441.7C319.1,443.61 320.59,445.15 322.42,445.15L324.21,445.15C322.38,445.15 320.89,443.6 320.89,441.7Z" style="fill:rgb(188,136,59);fill-rule:nonzero;"/>
                                    </g>
                                </g>
                                <g>
                                    <g>
                                        <path d="M332.14,409.59L326.61,416.12C326.19,416.61 325.15,416.61 324.73,416.12L319.18,409.59L319.1,409.49L319.1,400.13C319.1,398.22 320.59,396.68 322.42,396.68L328.9,396.68C330.73,396.68 332.22,398.23 332.22,400.13L332.22,409.49L332.14,409.59Z" style="fill:rgb(251,185,75);fill-rule:nonzero;"/>
                                    </g>
                                    <g>
                                        <path d="M326.53,416.11L320.98,409.58L320.9,409.48L320.9,400.12C320.9,398.21 322.39,396.67 324.22,396.67L322.43,396.67C320.59,396.67 319.11,398.22 319.11,400.12L319.11,409.48L319.19,409.58L324.74,416.11C325.15,416.59 326.14,416.59 326.58,416.14C326.56,416.13 326.54,416.13 326.53,416.11Z" style="fill:rgb(188,136,59);fill-rule:nonzero;"/>
                                    </g>
                                </g>
                                <g>
                                    <g>
                                        <path d="M314.34,414.43L320.87,419.96C321.36,420.38 321.36,421.42 320.87,421.84L314.34,427.39L314.24,427.47L304.88,427.47C302.97,427.47 301.43,425.98 301.43,424.15L301.43,417.67C301.43,415.83 302.98,414.35 304.88,414.35L314.24,414.35L314.34,414.43Z" style="fill:rgb(251,185,75);fill-rule:nonzero;"/>
                                    </g>
                                    <g>
                                        <path d="M320.86,420.04L314.33,425.59L314.23,425.67L304.87,425.67C302.96,425.67 301.42,424.18 301.42,422.35L301.42,424.14C301.42,425.98 302.97,427.46 304.87,427.46L314.23,427.46L314.33,427.38L320.86,421.83C321.34,421.42 321.34,420.43 320.89,419.99C320.88,420.01 320.88,420.04 320.86,420.04Z" style="fill:rgb(188,136,59);fill-rule:nonzero;"/>
                                    </g>
                                </g>
                                <g>
                                    <g>
                                        <path d="M336.99,414.43L330.46,419.96C329.97,420.38 329.97,421.42 330.46,421.84L336.99,427.39L337.09,427.47L346.45,427.47C348.36,427.47 349.9,425.98 349.9,424.15L349.9,417.67C349.9,415.83 348.35,414.35 346.45,414.35L337.09,414.35L336.99,414.43Z" style="fill:rgb(251,185,75);fill-rule:nonzero;"/>
                                    </g>
                                    <g>
                                        <path d="M346.45,425.68L337.09,425.68L336.99,425.6L330.46,420.05C330.45,420.04 330.44,420.02 330.43,420.01C329.98,420.45 329.98,421.44 330.46,421.85L336.99,427.4L337.09,427.48L346.45,427.48C348.36,427.48 349.9,425.99 349.9,424.16L349.9,422.37C349.9,424.19 348.36,425.68 346.45,425.68Z" style="fill:rgb(188,136,59);fill-rule:nonzero;"/>
                                    </g>
                                </g>
                            </g>
                            <g>
                                <g>
                                    <g opacity="0.4">
                                        <path d="M308.71,418.15C308.71,403.13 318.31,390.38 331.69,385.61C329.77,385.28 327.81,385.07 325.8,385.07C306.71,385.07 291.23,400.55 291.23,419.64C291.23,438.73 306.71,454.2 325.8,454.2C329.87,454.2 333.76,453.46 337.38,452.17C321.11,449.38 308.71,435.23 308.71,418.15Z" style="fill:rgb(55,69,96);fill-rule:nonzero;"/>
                                    </g>
                                    <g opacity="0.4">
                                        <path d="M302.14,418.45C302.14,402.55 312.88,389.2 327.49,385.16C326.93,385.14 326.37,385.08 325.8,385.08C306.71,385.08 291.23,400.56 291.23,419.65C291.23,438.74 306.71,454.21 325.8,454.21C329,454.21 332.08,453.74 335.01,452.93C316.72,452.05 302.14,436.97 302.14,418.45Z" style="fill:rgb(55,69,96);fill-rule:nonzero;"/>
                                    </g>
                                </g>
                                <g>
                                    <g opacity="0.2">
                                        <path d="M345.92,398.59C352.72,403.78 357.13,411.94 357.13,421.16C357.13,436.84 344.42,449.55 328.74,449.55C323.03,449.55 317.73,447.85 313.28,444.95C318.05,448.59 324,450.78 330.46,450.78C346.14,450.78 358.85,438.07 358.85,422.39C358.85,412.41 353.7,403.66 345.92,398.59Z" style="fill:white;fill-rule:nonzero;"/>
                                    </g>
                                    <g opacity="0.2">
                                        <path d="M299.68,422.25C299.68,405.66 313.13,392.21 329.71,392.21C334.54,392.21 339.08,393.38 343.12,395.4C337.77,390.45 330.63,387.4 322.76,387.4C306.17,387.4 292.73,400.85 292.73,417.43C292.73,429.19 299.51,439.34 309.35,444.27C303.42,438.8 299.68,430.97 299.68,422.25Z" style="fill:white;fill-rule:nonzero;"/>
                                    </g>
                                </g>
                            </g>
                        </g>
                        <g>
                            <g>
                                <g>
                                    <path d="M509.98,419.65C509.98,440.22 493.3,456.9 472.73,456.9C452.16,456.9 435.48,440.22 435.48,419.65C435.48,399.07 452.16,382.39 472.73,382.39C493.31,382.39 509.98,399.07 509.98,419.65Z" style="fill:rgb(55,69,96);fill-rule:nonzero;"/>
                                </g>
                                <g>
                                    <path d="M507.3,419.65C507.3,438.74 491.82,454.21 472.73,454.21C453.64,454.21 438.16,438.74 438.16,419.65C438.16,400.56 453.64,385.08 472.73,385.08C491.82,385.08 507.3,400.56 507.3,419.65Z" style="fill:rgb(80,97,147);fill-rule:nonzero;"/>
                                </g>
                            </g>
                            <g>
                                <g>
                                    <g>
                                        <g>
                                            <path d="M480.2,403.52C480.2,407.64 476.86,410.99 472.73,410.99C468.61,410.99 465.26,407.65 465.26,403.52C465.26,399.4 468.6,396.05 472.73,396.05C476.85,396.06 480.2,399.4 480.2,403.52Z" style="fill:rgb(106,200,202);fill-rule:nonzero;"/>
                                        </g>
                                        <g>
                                            <path d="M467.28,406.32C467.28,402.2 470.62,398.85 474.75,398.85C476.63,398.85 478.34,399.57 479.65,400.72C478.54,397.98 475.87,396.05 472.74,396.05C468.62,396.05 465.27,399.39 465.27,403.52C465.27,405.76 466.28,407.75 467.84,409.11C467.48,408.25 467.28,407.31 467.28,406.32Z" style="fill:rgb(82,153,153);fill-rule:nonzero;"/>
                                        </g>
                                    </g>
                                    <g>
                                        <g>
                                            <path d="M465.26,437.56C465.26,441.68 468.6,445.03 472.73,445.03C476.85,445.03 480.2,441.69 480.2,437.56C480.2,433.44 476.86,430.09 472.73,430.09C468.61,430.1 465.26,433.44 465.26,437.56Z" style="fill:rgb(249,240,80);fill-rule:nonzero;"/>
                                        </g>
                                        <g>
                                            <path d="M466.72,440.37C466.72,436.25 470.06,432.9 474.19,432.9C476.5,432.9 478.54,433.97 479.91,435.62C479.05,432.45 476.18,430.1 472.73,430.1C468.61,430.1 465.26,433.44 465.26,437.57C465.26,439.38 465.93,441.02 467,442.31C466.84,441.68 466.72,441.04 466.72,440.37Z" style="fill:rgb(201,191,69);fill-rule:nonzero;"/>
                                        </g>
                                    </g>
                                    <g>
                                        <g>
                                            <path d="M489.75,413.08C485.63,413.08 482.28,416.42 482.28,420.55C482.28,424.67 485.62,428.01 489.75,428.01C493.87,428.01 497.22,424.67 497.22,420.55C497.22,416.42 493.88,413.08 489.75,413.08Z" style="fill:rgb(251,185,75);fill-rule:nonzero;"/>
                                        </g>
                                        <g>
                                            <path d="M484.08,423.01C484.08,418.89 487.42,415.55 491.55,415.55C493.49,415.55 495.24,416.31 496.57,417.52C495.41,414.91 492.8,413.08 489.76,413.08C485.64,413.08 482.29,416.42 482.29,420.55C482.29,422.73 483.24,424.68 484.74,426.04C484.32,425.11 484.08,424.09 484.08,423.01Z" style="fill:rgb(196,141,61);fill-rule:nonzero;"/>
                                        </g>
                                    </g>
                                    <g>
                                        <g>
                                            <path d="M455.71,428.01C451.59,428.01 448.24,424.67 448.24,420.55C448.24,416.43 451.58,413.08 455.71,413.08C459.83,413.08 463.18,416.42 463.18,420.55C463.18,424.67 459.83,428.01 455.71,428.01Z" style="fill:rgb(241,112,169);fill-rule:nonzero;"/>
                                        </g>
                                        <g>
                                            <path d="M450.04,422.78C450.04,418.66 453.38,415.31 457.51,415.31C459.35,415.31 461.01,416 462.31,417.1C461.06,414.71 458.6,413.07 455.72,413.07C451.6,413.07 448.25,416.41 448.25,420.54C448.25,422.82 449.3,424.84 450.91,426.21C450.37,425.18 450.04,424.03 450.04,422.78Z" style="fill:rgb(181,87,132);fill-rule:nonzero;"/>
                                        </g>
                                    </g>
                                </g>
                                <g>
                                    <g>
                                        <g opacity="0.4">
                                            <path d="M455.63,418.15C455.63,403.13 465.23,390.38 478.61,385.61C476.69,385.28 474.73,385.07 472.72,385.07C453.63,385.07 438.15,400.55 438.15,419.64C438.15,438.73 453.63,454.2 472.72,454.2C476.79,454.2 480.68,453.46 484.3,452.17C468.03,449.38 455.63,435.23 455.63,418.15Z" style="fill:rgb(55,69,96);fill-rule:nonzero;"/>
                                        </g>
                                        <g opacity="0.4">
                                            <path d="M449.06,418.45C449.06,402.55 459.8,389.2 474.41,385.16C473.85,385.14 473.29,385.08 472.72,385.08C453.63,385.08 438.15,400.56 438.15,419.65C438.15,438.74 453.63,454.21 472.72,454.21C475.92,454.21 479,453.74 481.93,452.93C463.64,452.05 449.06,436.97 449.06,418.45Z" style="fill:rgb(55,69,96);fill-rule:nonzero;"/>
                                        </g>
                                    </g>
                                    <g>
                                        <g opacity="0.2">
                                            <path d="M492.85,398.59C499.65,403.78 504.06,411.94 504.06,421.16C504.06,436.84 491.35,449.55 475.67,449.55C469.96,449.55 464.66,447.85 460.21,444.95C464.98,448.59 470.93,450.78 477.39,450.78C493.07,450.78 505.78,438.07 505.78,422.39C505.78,412.41 500.62,403.66 492.85,398.59Z" style="fill:white;fill-rule:nonzero;"/>
                                        </g>
                                        <g opacity="0.2">
                                            <path d="M446.6,422.25C446.6,405.66 460.05,392.21 476.63,392.21C481.46,392.21 486,393.38 490.04,395.4C484.69,390.45 477.55,387.4 469.68,387.4C453.09,387.4 439.65,400.85 439.65,417.43C439.65,429.19 446.43,439.34 456.27,444.27C450.34,438.8 446.6,430.97 446.6,422.25Z" style="fill:white;fill-rule:nonzero;"/>
                                        </g>
                                    </g>
                                </g>
                            </g>
                        </g>
                    </g>
                    <g>
                        <g>
                            <path d="M390.98,431.07C390.98,432.43 389.88,433.53 388.52,433.53L379.79,433.53C378.43,433.53 377.33,432.43 377.33,431.07C377.33,429.71 378.43,428.61 379.79,428.61L388.52,428.61C389.88,428.61 390.98,429.71 390.98,431.07Z" style="fill:rgb(74,91,137);fill-rule:nonzero;"/>
                        </g>
                        <g>
                            <path d="M389.3,432.53L380.57,432.53C379.21,432.53 378.11,431.43 378.11,430.07C378.11,429.74 378.18,429.42 378.3,429.13C377.71,429.58 377.33,430.28 377.33,431.08C377.33,432.44 378.43,433.54 379.79,433.54L388.52,433.54C389.55,433.54 390.43,432.91 390.8,432.02C390.38,432.33 389.86,432.53 389.3,432.53Z" style="fill:rgb(57,71,102);fill-rule:nonzero;"/>
                        </g>
                    </g>
                    <g>
                        <g>
                            <path d="M417.86,431.07C417.86,432.43 416.76,433.53 415.4,433.53L406.66,433.53C405.3,433.53 404.2,432.43 404.2,431.07C404.2,429.71 405.3,428.61 406.66,428.61L415.4,428.61C416.76,428.61 417.86,429.71 417.86,431.07Z" style="fill:rgb(74,91,137);fill-rule:nonzero;"/>
                        </g>
                        <g>
                            <path d="M416.18,432.53L407.45,432.53C406.09,432.53 404.99,431.43 404.99,430.07C404.99,429.74 405.06,429.42 405.18,429.13C404.59,429.58 404.21,430.28 404.21,431.08C404.21,432.44 405.31,433.54 406.67,433.54L415.41,433.54C416.44,433.54 417.32,432.91 417.69,432.02C417.25,432.33 416.74,432.53 416.18,432.53Z" style="fill:rgb(57,71,102);fill-rule:nonzero;"/>
                        </g>
                    </g>
                </g>
            </g>
            <circle cx="397.83" cy="389.03" r="7.06" style="fill:rgb(227,6,19);"/>
        </g>
        <g>
            <path d="M229.43,391.79C230.45,348.41 247.83,307.78 278.62,276.99C310.37,245.24 352.59,227.75 397.49,227.75C442.39,227.75 484.61,245.24 516.36,276.99C547.15,307.78 564.53,348.41 565.55,391.79L574.72,391.79C573.69,345.96 555.37,303.03 522.85,270.51C489.37,237.03 444.85,218.59 397.5,218.59C350.15,218.59 305.63,237.03 272.15,270.51C239.63,303.03 221.3,345.96 220.28,391.79L229.43,391.79Z" style="fill:rgb(77,64,117);fill-rule:nonzero;"/>
            <g>
                <rect x="396.2" y="237.58" width="2.58" height="28.25" style="fill:rgb(78,85,88);"/>
                <g transform="matrix(0.8659,-0.5003,0.5003,0.8659,-92.0333,305.1712)">
                    <rect x="508.94" y="322.92" width="28.25" height="2.58" style="fill:rgb(78,85,88);"/>
                </g>
                <g transform="matrix(0.5006,-0.8657,0.8657,0.5006,-0.0103,542.2451)">
                    <rect x="455.87" y="269.84" width="28.25" height="2.58" style="fill:rgb(78,85,88);"/>
                </g>
                <g transform="matrix(0.5,-0.866,0.866,0.5,-144.8239,397.57)">
                    <rect x="270.62" y="310.09" width="2.58" height="28.25" style="fill:rgb(78,85,88);"/>
                </g>
                <g transform="matrix(0.8661,-0.5,0.5,0.8661,-92.0233,198.7927)">
                    <rect x="323.69" y="257.01" width="2.58" height="28.25" style="fill:rgb(78,85,88);"/>
                </g>
                <g>
                    <g transform="matrix(0.9945,-0.1045,0.1045,0.9945,-23.3976,41.204)">
                        <rect x="380.13" y="238.42" width="2.58" height="10.82" style="fill:rgb(78,85,88);"/>
                    </g>
                    <g transform="matrix(0.9782,-0.2076,0.2076,0.9782,-43.1845,81.2645)">
                        <rect x="364.24" y="240.94" width="2.58" height="10.82" style="fill:rgb(78,85,88);"/>
                    </g>
                    <g transform="matrix(0.9512,-0.3087,0.3087,0.9512,-60.2385,120.2689)">
                        <rect x="348.69" y="245.11" width="2.58" height="10.82" style="fill:rgb(78,85,88);"/>
                    </g>
                    <g transform="matrix(0.9138,-0.4062,0.4062,0.9138,-75.2272,158.1776)">
                        <rect x="333.67" y="250.87" width="2.58" height="10.82" style="fill:rgb(78,85,88);"/>
                    </g>
                </g>
                <g>
                    <g transform="matrix(0.1055,-0.9944,0.9944,0.1055,127.4673,629.3665)">
                        <rect x="408.14" y="242.54" width="10.82" height="2.58" style="fill:rgb(78,85,88);"/>
                    </g>
                    <g transform="matrix(0.2071,-0.9783,0.9783,0.2071,99.511,615.4761)">
                        <rect x="424.04" y="245.06" width="10.82" height="2.58" style="fill:rgb(78,85,88);"/>
                    </g>
                    <g transform="matrix(0.3087,-0.9512,0.9512,0.3087,69.3453,596.4405)">
                        <rect x="439.58" y="249.23" width="10.82" height="2.58" style="fill:rgb(78,85,88);"/>
                    </g>
                    <g transform="matrix(0.4063,-0.9137,0.9137,0.4063,38.9246,572.4711)">
                        <rect x="454.6" y="254.99" width="10.82" height="2.58" style="fill:rgb(78,85,88);"/>
                    </g>
                </g>
                <g>
                    <path d="M545.12,382.49L544.85,379.93L555.61,378.8L555.88,381.36L545.12,382.49Z" style="fill:rgb(78,85,88);fill-rule:nonzero;"/>
                    <g transform="matrix(0.9784,-0.2068,0.2068,0.9784,-63.5928,121.1917)">
                        <rect x="542.44" y="363.46" width="10.82" height="2.58" style="fill:rgb(78,85,88);"/>
                    </g>
                    <g transform="matrix(0.9512,-0.3087,0.3087,0.9512,-81.2407,184.8647)">
                        <rect x="538.27" y="347.92" width="10.82" height="2.58" style="fill:rgb(78,85,88);"/>
                    </g>
                    <g transform="matrix(0.9139,-0.4059,0.4059,0.9139,-89.3373,247.0757)">
                        <rect x="532.51" y="332.9" width="10.82" height="2.58" style="fill:rgb(78,85,88);"/>
                    </g>
                </g>
                <g>
                    <g transform="matrix(0.8148,-0.5798,0.5798,0.8148,-100.283,229.0713)">
                        <rect x="307.06" y="266.07" width="2.58" height="10.82" style="fill:rgb(78,85,88);"/>
                    </g>
                    <g transform="matrix(0.7498,-0.6617,0.6617,0.7498,-112.2502,266.1289)">
                        <rect x="294.45" y="276.07" width="2.58" height="10.82" style="fill:rgb(78,85,88);"/>
                    </g>
                    <g transform="matrix(0.6765,-0.7364,0.7364,0.6765,-123.6331,304.0342)">
                        <rect x="282.97" y="287.34" width="2.58" height="10.82" style="fill:rgb(78,85,88);"/>
                    </g>
                    <g transform="matrix(0.5962,-0.8029,0.8029,0.5962,-134.3387,343.2295)">
                        <rect x="272.72" y="299.74" width="2.58" height="10.82" style="fill:rgb(78,85,88);"/>
                    </g>
                </g>
                <g>
                    <g transform="matrix(0.8144,-0.5803,0.5803,0.8144,-81.4702,360.4056)">
                        <rect x="517.31" y="306.28" width="10.82" height="2.58" style="fill:rgb(78,85,88);"/>
                    </g>
                    <g transform="matrix(0.7496,-0.6619,0.6619,0.7496,-66.8461,413.2563)">
                        <rect x="507.31" y="293.68" width="10.82" height="2.58" style="fill:rgb(78,85,88);"/>
                    </g>
                    <g transform="matrix(0.6762,-0.7368,0.7368,0.6762,-46.4661,461.2554)">
                        <rect x="496.04" y="282.19" width="10.82" height="2.58" style="fill:rgb(78,85,88);"/>
                    </g>
                    <g transform="matrix(0.596,-0.803,0.803,0.596,-21.839,503.0619)">
                        <rect x="483.64" y="271.95" width="10.82" height="2.58" style="fill:rgb(78,85,88);"/>
                    </g>
                </g>
                <g>
                    <path d="M249.85,382.49L239.09,381.36L239.36,378.8L250.12,379.93L249.85,382.49Z" style="fill:rgb(78,85,88);fill-rule:nonzero;"/>
                    <g transform="matrix(0.2077,-0.9782,0.9782,0.2077,-161.0076,530.7159)">
                        <rect x="245.83" y="359.34" width="2.58" height="10.82" style="fill:rgb(78,85,88);"/>
                    </g>
                    <g transform="matrix(0.3087,-0.9511,0.9511,0.3087,-158.444,480.4097)">
                        <rect x="250" y="343.8" width="2.58" height="10.82" style="fill:rgb(78,85,88);"/>
                    </g>
                    <g transform="matrix(0.4062,-0.9138,0.9138,0.4062,-152.7375,433.3326)">
                        <rect x="255.76" y="328.78" width="2.58" height="10.82" style="fill:rgb(78,85,88);"/>
                    </g>
                </g>
            </g>
            <path d="M398.62,377.4C392.67,377.4 387.85,382.22 387.85,388.17C387.85,394.12 392.67,398.94 398.62,398.94C404.57,398.94 409.39,394.12 409.39,388.17C409.39,382.22 404.57,377.4 398.62,377.4ZM398.62,393.3C395.79,393.3 393.49,391 393.49,388.17C393.49,385.34 395.79,383.04 398.62,383.04C401.45,383.04 403.75,385.34 403.75,388.17C403.75,391 401.45,393.3 398.62,393.3Z" style="fill:rgb(78,85,88);fill-rule:nonzero;"/>
            <g>
                <path d="M407.11,381.57L453.21,274.87L398.65,377.4C402.09,377.41 405.15,379.04 407.11,381.57Z" style="fill:rgb(78,85,88);fill-rule:nonzero;"/>
                <path d="M389.71,394.2L379.14,414.05L386.57,414.05L390.41,420.2L399.63,398.87C399.3,398.9 398.96,398.92 398.62,398.92C394.91,398.93 391.64,397.06 389.71,394.2Z" style="fill:rgb(78,85,88);fill-rule:nonzero;"/>
            </g>
        </g>
    </g>
</svg>
